<svg width="41" height="41" viewBox="0 0 41 41" fill="none" xmlns="http://www.w3.org/2000/svg">
<path d="M27.8417 27.4571C26.607 28.6917 25.5574 30.0944 24.7216 31.6267C24.1129 32.7412 23.6262 33.9205 23.2637 35.138C29.792 34.4434 34.9864 29.3024 35.7707 22.8027C34.4654 23.171 33.2021 23.6844 32.0113 24.3351C30.4828 25.1671 29.0802 26.2167 27.8417 27.4571Z" fill="url(#paint0_linear_1979_527)"/>
<path d="M27.6505 12.9826C28.8833 14.2154 30.284 15.265 31.8144 16.1027C33.0052 16.7534 34.2666 17.2649 35.5719 17.6351C34.7723 11.1564 29.5912 6.03833 23.082 5.3418C23.4427 6.54593 23.9274 7.71381 24.5304 8.82063C25.3625 10.3435 26.4139 11.7441 27.6505 12.9826Z" fill="url(#paint1_linear_1979_527)"/>
<path d="M12.7948 27.6469C11.5582 26.4103 10.1556 25.3588 8.62517 24.523C7.61949 23.9734 6.5623 23.523 5.47266 23.1738C6.30277 29.3873 11.1708 34.324 17.3518 35.2515C16.9912 34.0626 16.5122 32.91 15.9168 31.8184C15.0829 30.288 14.0333 28.8854 12.7948 27.6469Z" fill="url(#paint2_linear_1979_527)"/>
<path d="M12.7911 12.9825C14.0258 11.7478 15.0734 10.349 15.9092 8.82047C16.5008 7.73846 16.9779 6.5973 17.3386 5.41797C11.1767 6.34731 6.32385 11.2612 5.47656 17.4517C6.5662 17.1025 7.6234 16.6502 8.62717 16.1006C10.1538 15.2667 11.5545 14.2191 12.7911 12.9825Z" fill="url(#paint3_linear_1979_527)"/>
<path d="M20.3175 24.0081C20.2374 24.0081 20.1725 23.9432 20.1725 23.8631C20.1725 22.9547 19.8195 22.0998 19.1764 21.4567C18.5333 20.8136 17.6783 20.4587 16.7681 20.4587C16.6879 20.4587 16.625 20.3957 16.623 20.3156C16.623 20.2335 16.6879 20.1686 16.7681 20.1686C17.6764 20.1686 18.5313 19.8156 19.1744 19.1725C19.8175 18.5294 20.1706 17.6745 20.1725 16.7661C20.1744 16.6841 20.2393 16.6211 20.3175 16.6211C20.3977 16.6211 20.4625 16.686 20.4625 16.7661C20.4645 17.6783 20.8175 18.5313 21.4587 19.1725C22.1018 19.8156 22.9567 20.1686 23.865 20.1686C23.9452 20.1686 24.0101 20.2335 24.0101 20.3137C24.0082 20.3957 23.9452 20.4587 23.865 20.4587C22.9548 20.4587 22.0999 20.8136 21.4587 21.4567C20.8156 22.0998 20.4625 22.9547 20.4625 23.8631C20.4625 23.9413 20.3977 24.0081 20.3175 24.0081Z" fill="url(#paint4_linear_1979_527)"/>
<path d="M20.3196 40.6315C19.749 40.6315 19.2853 40.1678 19.2853 39.5972C19.2853 36.5459 18.5162 33.525 17.0621 30.8629C16.2282 29.3344 15.1786 27.9299 13.9401 26.6933C12.7036 25.4567 11.301 24.4053 9.7705 23.5694C7.10842 22.1153 4.08758 21.3463 1.0343 21.3463C0.465625 21.3463 0.0114498 20.8978 0 20.3253C0 19.7414 0.463717 19.2796 1.0343 19.2796C4.08758 19.2796 7.11033 18.5086 9.77432 17.0526C11.2991 16.2206 12.6997 15.171 13.9363 13.9344C15.171 12.6997 16.2187 11.301 17.0545 9.77241C18.5124 7.11033 19.2834 4.08949 19.2853 1.03621C19.2967 0.456084 19.7605 0 20.3196 0C20.8902 0 21.3558 0.465625 21.3558 1.03621V1.07056C21.3615 4.10857 22.1306 7.11796 23.579 9.77241C24.411 11.2971 25.4606 12.6978 26.699 13.9363C27.9318 15.1691 29.3325 16.2186 30.863 17.0564C33.525 18.5124 36.5478 19.2815 39.603 19.2815C40.1736 19.2815 40.6373 19.7433 40.6373 20.312C40.6258 20.8997 40.1716 21.3482 39.603 21.3482C36.5478 21.3482 33.5269 22.1172 30.8668 23.5732C29.3401 24.4053 27.9375 25.4567 26.699 26.6952C25.4644 27.9299 24.4148 29.3325 23.579 30.8649C22.1248 33.5269 21.3558 36.5478 21.3558 39.5991C21.3539 40.1678 20.8902 40.6315 20.3196 40.6315ZM3.93873 20.3139C6.19053 20.6516 8.37362 21.3825 10.3697 22.4721C12.0051 23.3652 13.505 24.4892 14.8256 25.8098C16.148 27.1322 17.2701 28.6321 18.1613 30.2656C19.2528 32.2636 19.9837 34.4525 20.3215 36.7081C20.6593 34.4525 21.3901 32.2655 22.4817 30.2656C23.3748 28.6283 24.495 27.1303 25.8155 25.8117C27.1399 24.4873 28.6379 23.3652 30.2695 22.476C32.2636 21.3863 34.4467 20.6554 36.6985 20.3158C34.4448 19.9761 32.2617 19.2471 30.2657 18.1556C28.6302 17.2606 27.1341 16.1385 25.8174 14.8218C24.4949 13.4993 23.3729 12.0032 22.4836 10.3735C21.3921 8.37171 20.6612 6.18099 20.3234 3.92347C19.9837 6.18099 19.2509 8.37362 18.1556 10.3754C17.2625 12.007 16.1423 13.5031 14.8237 14.8218C13.5031 16.1423 12.007 17.2625 10.3773 18.1537C8.37553 19.2433 6.19244 19.9742 3.93873 20.3139Z" fill="url(#paint5_linear_1979_527)"/>
<path d="M20.3188 31.1886C19.857 31.1886 19.4811 30.8126 19.4811 30.3508C19.4811 27.8929 18.525 25.5858 16.7885 23.8493C15.0519 22.1127 12.7429 21.1566 10.2869 21.1547C9.82125 21.1547 9.45295 20.7922 9.44531 20.3284C9.44531 19.8552 9.82125 19.4792 10.2831 19.4792C12.7409 19.4773 15.0481 18.5213 16.7865 16.7866C18.5231 15.0501 19.4792 12.7429 19.4811 10.2889C19.4887 9.81752 19.8646 9.44922 20.3188 9.44922C20.7806 9.44922 21.1566 9.82515 21.1566 10.287C21.1623 12.7544 22.1183 15.0558 23.8492 16.7866C25.5857 18.5213 27.8929 19.4773 30.3469 19.4792C30.8126 19.4792 31.1885 19.8552 31.1885 20.3151V20.3284C31.1809 20.7922 30.8126 21.1547 30.3507 21.1547C27.8909 21.1566 25.5819 22.1127 23.8492 23.8493C22.1126 25.5858 21.1566 27.8949 21.1566 30.3489C21.1566 30.8126 20.7806 31.1886 20.3188 31.1886ZM13.2047 20.3151C14.8763 20.7998 16.4068 21.7005 17.6701 22.9638C18.9334 24.2271 19.8341 25.7576 20.3169 27.4273C20.8016 25.7576 21.7004 24.2271 22.9637 22.9638C24.2251 21.7005 25.7556 20.7998 27.4272 20.3151C25.7575 19.8304 24.227 18.9316 22.9637 17.6702C21.7004 16.4069 20.7997 14.8764 20.3169 13.2048C19.8322 14.8745 18.9315 16.405 17.6682 17.6702C16.4049 18.9316 14.8744 19.8304 13.2047 20.3151Z" fill="url(#paint6_linear_1979_527)"/>
<defs>
<linearGradient id="paint0_linear_1979_527" x1="16.8501" y1="29.852" x2="48.7059" y2="27.6321" gradientUnits="userSpaceOnUse">
<stop offset="0.0346" stop-color="#FF9933"/>
<stop offset="0.2371" stop-color="#FA9139"/>
<stop offset="0.558" stop-color="#EB7A48"/>
<stop offset="0.9553" stop-color="#D45560"/>
<stop offset="1" stop-color="#D15063"/>
</linearGradient>
<linearGradient id="paint1_linear_1979_527" x1="18.3031" y1="12.2558" x2="46.0308" y2="10.3236" gradientUnits="userSpaceOnUse">
<stop offset="0.0346" stop-color="#FF9933"/>
<stop offset="0.2371" stop-color="#FA9139"/>
<stop offset="0.558" stop-color="#EB7A48"/>
<stop offset="0.9553" stop-color="#D45560"/>
<stop offset="1" stop-color="#D15063"/>
</linearGradient>
<linearGradient id="paint2_linear_1979_527" x1="0.951281" y1="29.9406" x2="27.2601" y2="28.1073" gradientUnits="userSpaceOnUse">
<stop offset="0.0346" stop-color="#FF9933"/>
<stop offset="0.2371" stop-color="#FA9139"/>
<stop offset="0.558" stop-color="#EB7A48"/>
<stop offset="0.9553" stop-color="#D45560"/>
<stop offset="1" stop-color="#D15063"/>
</linearGradient>
<linearGradient id="paint3_linear_1979_527" x1="-0.626908" y1="12.2728" x2="29.6405" y2="10.1635" gradientUnits="userSpaceOnUse">
<stop offset="0.0346" stop-color="#FF9933"/>
<stop offset="0.2371" stop-color="#FA9139"/>
<stop offset="0.558" stop-color="#EB7A48"/>
<stop offset="0.9553" stop-color="#D45560"/>
<stop offset="1" stop-color="#D15063"/>
</linearGradient>
<linearGradient id="paint4_linear_1979_527" x1="-0.294822" y1="21.7502" x2="51.5452" y2="18.1376" gradientUnits="userSpaceOnUse">
<stop offset="0.0346" stop-color="#FF9933"/>
<stop offset="0.2371" stop-color="#FA9139"/>
<stop offset="0.558" stop-color="#EB7A48"/>
<stop offset="0.9553" stop-color="#D45560"/>
<stop offset="1" stop-color="#D15063"/>
</linearGradient>
<linearGradient id="paint5_linear_1979_527" x1="-0.294489" y1="21.753" x2="51.5455" y2="18.1405" gradientUnits="userSpaceOnUse">
<stop offset="0.0346" stop-color="#FF9933"/>
<stop offset="0.1498" stop-color="#F78D3B"/>
<stop offset="0.5055" stop-color="#E26C51"/>
<stop offset="0.8016" stop-color="#D6575E"/>
<stop offset="1" stop-color="#D15063"/>
</linearGradient>
<linearGradient id="paint6_linear_1979_527" x1="-0.295188" y1="21.7534" x2="51.5448" y2="18.1409" gradientUnits="userSpaceOnUse">
<stop offset="0.0346" stop-color="#FF9933"/>
<stop offset="0.2371" stop-color="#FA9139"/>
<stop offset="0.558" stop-color="#EB7A48"/>
<stop offset="0.9553" stop-color="#D45560"/>
<stop offset="1" stop-color="#D15063"/>
</linearGradient>
</defs>
</svg>
